<svg id="Layer_1" data-name="Layer 1" xmlns="http://www.w3.org/2000/svg" xmlns:xlink="http://www.w3.org/1999/xlink" viewBox="0 0 688 150"><defs><clipPath id="clip-path"><path d="M3.29,51.25v45H7.43V51.5a40,40,0,0,1,80,0v39a16.75,16.75,0,0,0,4.14-11.05V51.25a44.14,44.14,0,1,0-88.28,0" style="fill:none"/></clipPath><linearGradient id="linear-gradient" x1="-106" y1="236" x2="-105" y2="236" gradientTransform="matrix(85.54, 0, 0, -85.54, 9070.92, 20240.29)" gradientUnits="userSpaceOnUse"><stop offset="0" stop-color="#ed7dff"/><stop offset="0.82" stop-color="#5403c8"/><stop offset="1" stop-color="#5403c8"/></linearGradient><clipPath id="clip-path-2"><path d="M7.43,51.5V96.27h4.32a25.12,25.12,0,0,0,7.6-1.17V51.37a28.08,28.08,0,0,1,56.16,0V96.25a16.72,16.72,0,0,0,11.92-5.74v-39a40,40,0,0,0-80,0" style="fill:none"/></clipPath><linearGradient id="linear-gradient-2" x1="-106" y1="236" x2="-105" y2="236" gradientTransform="matrix(80, 0, 0, -80, 8487.08, 18933.6)" gradientUnits="userSpaceOnUse"><stop offset="0" stop-color="#d654ff"/><stop offset="0.53" stop-color="#7e24c8"/><stop offset="0.84" stop-color="#500aab"/><stop offset="1" stop-color="#500aab"/></linearGradient><clipPath id="clip-path-3"><path d="M19.35,51.37V95.1a25.16,25.16,0,0,0,17.56-24V51.68a10.52,10.52,0,0,1,21,0V79.46A16.82,16.82,0,0,0,74.76,96.27l.75,0V51.37a28.08,28.08,0,0,0-56.16,0" style="fill:none"/></clipPath><linearGradient id="linear-gradient-3" x1="-106" y1="236.01" x2="-105" y2="236.01" gradientTransform="matrix(53.66, 0, 0, -53.66, 5707.26, 12723.93)" gradientUnits="userSpaceOnUse"><stop offset="0" stop-color="#bb26fe"/><stop offset="0.46" stop-color="#981de8"/><stop offset="0.48" stop-color="#951ce6"/><stop offset="0.66" stop-color="#7813d2"/><stop offset="0.81" stop-color="#660ec5"/><stop offset="0.93" stop-color="#600cc1"/><stop offset="1" stop-color="#600cc1"/></linearGradient><clipPath id="clip-path-4"><path d="M58,51.25V79.46a16.75,16.75,0,0,0,4.14,11.05v-39a40,40,0,0,1,80,0V96.27h4.14v-45a44.14,44.14,0,1,0-88.28,0" style="fill:none"/></clipPath><linearGradient id="linear-gradient-4" x1="-106" y1="236.09" x2="-105" y2="236.09" gradientTransform="matrix(0, 107.43, 107.43, 0, -25259.42, 11394.26)" gradientUnits="userSpaceOnUse"><stop offset="0" stop-color="#ef7aff"/><stop offset="0.6" stop-color="#f57753"/><stop offset="0.9" stop-color="#ffec0e"/><stop offset="1" stop-color="#ffec0e"/></linearGradient><clipPath id="clip-path-5"><path d="M62.09,51.5v39A16.72,16.72,0,0,0,74,96.25V51.37a28.08,28.08,0,1,1,56.16,0V95.1a25.12,25.12,0,0,0,7.6,1.17h4.32V51.5a40,40,0,0,0-80,0" style="fill:none"/></clipPath><linearGradient id="linear-gradient-5" x1="-106" y1="236.08" x2="-105" y2="236.08" gradientTransform="matrix(0, 100.43, 100.43, 0, -23607.91, 10657.33)" gradientUnits="userSpaceOnUse"><stop offset="0" stop-color="#d456f8"/><stop offset="0.6" stop-color="#fe503a"/><stop offset="0.9" stop-color="#fcda1f"/><stop offset="1" stop-color="#fcda1f"/></linearGradient><clipPath id="clip-path-6"><path d="M74,51.37V96.25l.75,0A16.82,16.82,0,0,0,91.57,79.46V51.68a10.52,10.52,0,0,1,10.52-10.52h.27a10.52,10.52,0,0,1,10.25,10.51V71.11a25.16,25.16,0,0,0,17.56,24V51.37a28.08,28.08,0,1,0-56.16,0" style="fill:none"/></clipPath><linearGradient id="linear-gradient-6" x1="-106" y1="236.06" x2="-105" y2="236.06" gradientTransform="matrix(0, 101.34, 101.34, 0, -23819.24, 10765.99)" gradientUnits="userSpaceOnUse"><stop offset="0" stop-color="#d72abd"/><stop offset="0.51" stop-color="#ff2b25"/><stop offset="0.9" stop-color="#ff5c0d"/><stop offset="1" stop-color="#ff5c0d"/></linearGradient><clipPath id="clip-path-7"><rect x="-106" y="-80.14" width="934.85" height="316.14" style="fill:none"/></clipPath></defs><title>Artboard 1</title><g style="clip-path:url(#clip-path)"><rect x="3.29" y="7.11" width="88.28" height="89.16" style="fill:url(#linear-gradient)"/></g><g style="clip-path:url(#clip-path-2)"><rect x="7.43" y="11.5" width="80" height="84.77" style="fill:url(#linear-gradient-2)"/></g><g style="clip-path:url(#clip-path-3)"><rect x="19.35" y="23.29" width="56.16" height="72.98" style="fill:url(#linear-gradient-3)"/></g><g style="clip-path:url(#clip-path-4)"><rect x="39.62" y="-10.83" width="124.94" height="125.05" transform="translate(-9.34 77.71) rotate(-40)" style="fill:url(#linear-gradient-4)"/></g><g style="clip-path:url(#clip-path-5)"><rect x="44.2" y="-4.29" width="115.77" height="116.36" transform="translate(-10.75 78.23) rotate(-40)" style="fill:url(#linear-gradient-5)"/></g><g style="clip-path:url(#clip-path-6)"><rect x="57.13" y="13.78" width="89.93" height="92" transform="translate(-14.54 79.61) rotate(-40)" style="fill:url(#linear-gradient-6)"/></g><g style="clip-path:url(#clip-path-7)"><path d="M355.85,54.46A21.11,21.11,0,1,0,377,75.57a21.11,21.11,0,0,0-21.11-21.11m0,34.65a13.54,13.54,0,1,1,13.54-13.54,13.55,13.55,0,0,1-13.54,13.54" style="fill:#fff"/><path d="M401.25,89.34a10.59,10.59,0,1,1,9.06-16l6.19-3.93a17.93,17.93,0,1,0,0,18.77l-6.19-3.93a10.56,10.56,0,0,1-9.06,5.13" style="fill:#fff"/><path d="M296.11,69.37a17.83,17.83,0,1,0,2.67,9.38,17.91,17.91,0,0,0-2.67-9.38m-15.26,20a10.6,10.6,0,1,1,9.07-5.13,10.59,10.59,0,0,1-9.07,5.13" style="fill:#fff"/><path d="M577.56,89.34a10.59,10.59,0,1,1,9.06-16l6.19-3.93a17.93,17.93,0,1,0,0,18.77l-6.19-3.93a10.56,10.56,0,0,1-9.06,5.13" style="fill:#fff"/><path d="M631.09,69.37a17.83,17.83,0,1,0,2.67,9.38,17.91,17.91,0,0,0-2.67-9.38m-15.26,20a10.6,10.6,0,1,1,9.07-5.13,10.59,10.59,0,0,1-9.07,5.13" style="fill:#fff"/><path d="M211.08,60.31c-8,0-12.94,5.19-15.15,8.68V95.68h7.68V71.8a8.55,8.55,0,0,1,7.28-3.38,10.89,10.89,0,0,1,9.57,7.16v20.1h7.69v-20c-.83-8.11-9.12-15.39-17.07-15.39" style="fill:#fff"/><path d="M517.63,60.31c-7.95,0-12.94,5.19-15.15,8.68V95.68h7.68V71.8a8.55,8.55,0,0,1,7.28-3.38A10.89,10.89,0,0,1,527,75.58v20.1h7.68v-20c-.82-8.11-9.11-15.39-17.06-15.39" style="fill:#fff"/><path d="M671.42,60.48a12.79,12.79,0,0,0-9,3.69,12.83,12.83,0,0,0-21.84,9.15V95.68h7.68V73.32a5.16,5.16,0,0,1,10.32,0V95.68h7.68V73.32a5.16,5.16,0,0,1,10.32,0V95.68h7.68V73.32a12.84,12.84,0,0,0-12.84-12.84" style="fill:#fff"/><path d="M467.25,61.17v7.68h16.4a3.73,3.73,0,0,1,3.74,3.74V73.9H474.07a10.89,10.89,0,1,0,0,21.78h13.25a7.75,7.75,0,0,0,7.75-7.75V71.84A10.67,10.67,0,0,0,484.4,61.17Zm3.61,23.62h0a3.21,3.21,0,0,1,3.21-3.21h13.32V88H474.07a3.21,3.21,0,0,1-3.21-3.21" style="fill:#fff"/><path d="M320.88,60.31a16.9,16.9,0,0,0-15.14,9.29V95.68h7.69V71.94a8.94,8.94,0,0,1,7.07-3.55,7.19,7.19,0,0,1,4.93,1.81l4.35-7a16.19,16.19,0,0,0-8.9-2.92" style="fill:#fff"/><path d="M256.94,69.48V61.36H243.28V55.72H235.6V85.36a10.32,10.32,0,0,0,10.32,10.32h11V87.56H246a2.7,2.7,0,0,1-2.7-2.71V69.48Z" style="fill:#fff"/><path d="M553.42,91.21A5.18,5.18,0,1,1,548.24,86a5.18,5.18,0,0,1,5.18,5.18" style="fill:#fff"/><path d="M453.74,82.32a3.59,3.59,0,0,0,3.62-3.53v0a17.67,17.67,0,0,0-.26-3,17.95,17.95,0,1,0-2.41,12.41c.2-.32.38-.64.55-1l-7.05-2.51a10.56,10.56,0,0,1-18.72-2.34h24.27Zm-24.45-6.59A10.57,10.57,0,0,1,448.5,73.3a10.38,10.38,0,0,1,1.07,2.43Z" style="fill:#fff"/><path d="M185.38,82.32A3.6,3.6,0,0,0,189,78.79v0a17.67,17.67,0,0,0-.27-3,18.11,18.11,0,0,0-2.4-6.36,17.93,17.93,0,1,0,0,18.77c.19-.32.37-.64.55-1l-7.06-2.51a10.55,10.55,0,0,1-18.71-2.34h24.26Zm-24.45-6.59a10.57,10.57,0,0,1,19.21-2.43,10.41,10.41,0,0,1,1.08,2.43Z" style="fill:#fff"/><rect x="195.28" y="128.57" width="2.45" height="15.17" style="fill:#fff"/><path d="M349.91,128.57V131h7.66a2.18,2.18,0,0,1,2.18,2.19v1.1h-6.88a4.72,4.72,0,0,0,0,9.44h6.24a3.09,3.09,0,0,0,3.09-3.09V133a4.43,4.43,0,0,0-4.43-4.44Zm.68,10.46h0a2.28,2.28,0,0,1,2.28-2.28h6.88v3.67a.87.87,0,0,1-.87.88h-6a2.28,2.28,0,0,1-2.28-2.27" style="fill:#fff"/><path d="M385.28,129.84v-6.63h-2.45v20.53h2.45v-9.16a4,4,0,0,1,4-4,5.34,5.34,0,0,1,5.34,5.34v7.83h2.45v-8.09a7.53,7.53,0,0,0-7.53-7.53,6.21,6.21,0,0,0-4.16,1.61Z" style="fill:#fff"/><path d="M569.67,130.79h0a2.69,2.69,0,0,1,2.69-2.69h9.28v-2.44h-9.28a5.13,5.13,0,1,0,0,10.26h5a2.69,2.69,0,0,1,2.68,2.69h0a2.69,2.69,0,0,1-2.68,2.69h-9.44v2.44h9.44a5.13,5.13,0,0,0,5.13-5.13h0a5.13,5.13,0,0,0-5.13-5.13h-5a2.68,2.68,0,0,1-2.69-2.69" style="fill:#fff"/><path d="M661.78,134.53h-4.09a1.87,1.87,0,0,1,0-3.74h8v-2.44h-8a4.31,4.31,0,0,0,0,8.62h4.09a2.17,2.17,0,1,1,0,4.34H654.1v2.44h7.68a4.61,4.61,0,1,0,0-9.22" style="fill:#fff"/><path d="M677.75,134.53h-4.08a1.87,1.87,0,1,1,0-3.74h8v-2.44h-8a4.31,4.31,0,1,0,0,8.62h4.09a2.17,2.17,0,0,1,0,4.34h-7.69v2.44h7.68a4.61,4.61,0,1,0,0-9.22" style="fill:#fff"/><path d="M501.59,131v-2.45h-7v-2.91h-2.44v14.1a4,4,0,0,0,4,4h5.45V141.3h-5.08a1.92,1.92,0,0,1-1.92-1.92V131Z" style="fill:#fff"/><path d="M446.65,132.92v10.87H444.2V132a7.71,7.71,0,0,1,6.73-4.07,6.67,6.67,0,0,1,4.28,1.66l-1.57,1.86a4.54,4.54,0,0,0-7,1.43" style="fill:#fff"/><path d="M320.71,132.92v10.87h-2.45V132A7.73,7.73,0,0,1,325,128a6.67,6.67,0,0,1,4.28,1.66l-1.56,1.86a4.55,4.55,0,0,0-7,1.43" style="fill:#fff"/><path d="M458.41,128.57V131h7.27a2.56,2.56,0,0,1,2.56,2.56v.84H461.4a4.66,4.66,0,1,0,0,9.32h5.84a3.44,3.44,0,0,0,3.45-3.44v-6.65a5.09,5.09,0,0,0-5.08-5.08Zm.77,10.51h0a2.21,2.21,0,0,1,2.22-2.21h6.84v3.42a1,1,0,0,1-1,1H461.4a2.21,2.21,0,0,1-2.22-2.22" style="fill:#fff"/><path d="M188.46,128.57v8.67a4.26,4.26,0,1,1-8.52,0v-8.67h-2.45v8.67a6.71,6.71,0,0,0,13.41,0v-8.67Z" style="fill:#fff"/><path d="M597.07,128.57v8.67a4.26,4.26,0,0,1-8.52,0v-8.67H586.1v8.67a6.71,6.71,0,0,0,13.42,0v-8.67Z" style="fill:#fff"/><path d="M438.07,128.57v8.67a4.27,4.27,0,0,1-8.53,0v-8.67H427.1v8.67a6.71,6.71,0,0,0,13.41,0v-8.67Z" style="fill:#fff"/><path d="M213.09,123.34v6.27a7.72,7.72,0,1,0,2,10.89,5.74,5.74,0,0,0,.43-.66v-16.5Zm-4.26,18.06a5.37,5.37,0,1,1,4.26-8.6v6.47a5.33,5.33,0,0,1-4.26,2.13" style="fill:#fff"/><path d="M248.63,123.34v6.27a7.71,7.71,0,1,0,2,10.89,7.39,7.39,0,0,0,.42-.66v-16.5Zm-4.25,18.06a5.37,5.37,0,1,1,4.25-8.6v6.47a5.32,5.32,0,0,1-4.25,2.13" style="fill:#fff"/><path d="M552.2,123.34v6.27a7.71,7.71,0,1,0,2,10.89,7.39,7.39,0,0,0,.42-.66v-16.5ZM548,141.4a5.37,5.37,0,1,1,4.25-8.6v6.47A5.32,5.32,0,0,1,548,141.4" style="fill:#fff"/><path d="M285.65,148.75v-6.27a7.71,7.71,0,1,0-2-10.89,7.39,7.39,0,0,0-.42.66v16.5Zm4.25-18.06a5.37,5.37,0,1,1-4.25,8.6v-6.47a5.32,5.32,0,0,1,4.25-2.13" style="fill:#fff"/><path d="M302.69,148.75v-6.27a7.72,7.72,0,1,0-2-10.89,7.39,7.39,0,0,0-.42.66v16.5ZM307,130.69a5.37,5.37,0,1,1-4.26,8.6v-6.47a5.36,5.36,0,0,1,4.26-2.13" style="fill:#fff"/><path d="M198.28,124.68a1.78,1.78,0,1,1-1.78-1.77,1.77,1.77,0,0,1,1.78,1.77" style="fill:#fff"/><path d="M337.71,128.6a7.58,7.58,0,1,0,7.58,7.57,7.58,7.58,0,0,0-7.58-7.57m.16,12.87a5.3,5.3,0,1,1,5.29-5.3,5.29,5.29,0,0,1-5.29,5.3" style="fill:#fff"/><path d="M373,141.47a5.3,5.3,0,1,1,4.63-7.81l1.73-1.34a7.58,7.58,0,1,0,0,7.69l-1.73-1.34a5.28,5.28,0,0,1-4.64,2.8" style="fill:#fff"/><path d="M609.91,141.47a5.3,5.3,0,1,1,4.62-7.81l1.73-1.34a7.57,7.57,0,1,0,0,7.69l-1.73-1.34a5.3,5.3,0,0,1-4.64,2.8" style="fill:#fff"/><path d="M627,141.47a5.3,5.3,0,1,1,4.63-7.81l1.73-1.34a7.58,7.58,0,1,0,0,7.69l-1.73-1.34a5.3,5.3,0,0,1-4.64,2.8" style="fill:#fff"/><path d="M487.73,135.28a6.71,6.71,0,0,0-6.7-6.71h-1.61a5.1,5.1,0,0,0-5.1,5.1v10.08h2.44V133.67a2.66,2.66,0,0,1,2.66-2.65H481a4.26,4.26,0,0,1,4.26,4.26v8.47h2.44Z" style="fill:#fff"/><path d="M166,133.54v2.72h5.65v3.07a7.06,7.06,0,0,1-7.91,2.09,6.64,6.64,0,0,1-4-3.93A7,7,0,0,1,171.33,130l1.8-1.65a9.42,9.42,0,0,0-9.25-2.73,9.25,9.25,0,0,0-6.71,6.55,9.43,9.43,0,0,0,9.07,12,9.3,9.3,0,0,0,5.42-1.72,9.54,9.54,0,0,0,2.72-3v-4.2a1.72,1.72,0,0,0-1.72-1.72Z" style="fill:#fff"/><path d="M415.47,133.54v2.72h5.65v3.07a7.06,7.06,0,0,1-7.91,2.09,6.64,6.64,0,0,1-4-3.93A7,7,0,0,1,420.79,130l1.8-1.65a9.42,9.42,0,0,0-9.25-2.73,9.25,9.25,0,0,0-6.71,6.55,9.43,9.43,0,0,0,9.07,12,9.3,9.3,0,0,0,5.42-1.72,9.54,9.54,0,0,0,2.72-3v-4.2a1.72,1.72,0,0,0-1.72-1.72Z" style="fill:#fff"/><path d="M519.87,137.12a7.32,7.32,0,0,0,.07-1,8.53,8.53,0,0,0-.11-1.24,7.59,7.59,0,1,0-.86,4.93l-1.86-1.09a5.27,5.27,0,0,1-9.79-1.65Zm-12.48-2.19a5.27,5.27,0,0,1,10.25,0Z" style="fill:#fff"/><path d="M537.6,137.12a7.32,7.32,0,0,0,.07-1,8.53,8.53,0,0,0-.11-1.24,7.59,7.59,0,1,0-.86,4.93l-1.86-1.09a5.27,5.27,0,0,1-9.79-1.65Zm-12.48-2.19a5.27,5.27,0,0,1,10.25,0Z" style="fill:#fff"/><path d="M234.06,137.12c0-.31.06-.62.06-1a7.33,7.33,0,0,0-.11-1.24,7.59,7.59,0,1,0-.86,4.93l-1.86-1.09a5.27,5.27,0,0,1-9.79-1.65Zm-12.49-2.19a5.27,5.27,0,0,1,10.26,0Z" style="fill:#fff"/><path d="M651.24,137.12a6.79,6.79,0,0,0,0-2.19,7.59,7.59,0,1,0-.86,4.93l-1.86-1.09a5.27,5.27,0,0,1-9.79-1.65Zm-12.48-2.19a5.27,5.27,0,0,1,10.26,0Z" style="fill:#fff"/><path d="M277.81,143.59h2.44l-4.85-15.26a4.1,4.1,0,0,0-7.82,0l-4.85,15.26h2.45l1.25-3.94h10.13Zm-10.6-6.38,2.55-8a1.82,1.82,0,0,1,3.47,0l2.55,8Z" style="fill:#fff"/><path d="M403.76,142a1.87,1.87,0,1,1-1.86-1.87,1.86,1.86,0,0,1,1.86,1.87" style="fill:#fff"/></g></svg>